<?xml version="1.0" encoding="UTF-8"?>
<svg width="26px" height="16px" viewBox="0 0 26 16" version="1.1" xmlns="http://www.w3.org/2000/svg" xmlns:xlink="http://www.w3.org/1999/xlink">
    <!-- Generator: Sketch 41.2 (35397) - http://www.bohemiancoding.com/sketch -->
    <title>Page 1</title>
    <desc>Created with Sketch.</desc>
    <defs></defs>
    <g id="Page-1" stroke="none" stroke-width="1" fill="none" fill-rule="evenodd">
        <g id="Desktop-HD-Copy-8" transform="translate(-465.000000, -465.000000)" stroke="#8C00FF" fill="#8C00FF">
            <path d="M489.931783,472.741997 C489.938283,472.754492 489.949783,472.763992 489.955283,472.776992 C489.981778,472.837482 489.996778,472.903972 489.996778,472.973962 C489.996778,473.043952 489.981778,473.110447 489.955283,473.170937 C489.950783,473.181937 489.940783,473.189937 489.935283,473.200932 C489.909788,473.248927 489.881293,473.294422 489.842298,473.331917 C489.840298,473.333917 489.839298,473.336917 489.837298,473.338917 L482.838238,479.814545 C482.741748,479.904033 482.619768,479.948027 482.497783,479.948027 C482.363303,479.948027 482.229818,479.894034 482.131833,479.788548 C481.943858,479.587075 481.955358,479.271618 482.157328,479.084644 L488.223513,473.471897 L466.499933,473.471897 C466.22347,473.471897 466,473.248927 466,472.973962 C466,472.699002 466.22347,472.475532 466.499933,472.475532 L488.223513,472.475532 L482.157328,466.863287 C481.955358,466.675812 481.943858,466.360852 482.131833,466.159382 C482.318808,465.957407 482.635763,465.945907 482.838238,466.133382 L489.837298,472.608512 C489.839798,472.611012 489.840298,472.614012 489.842798,472.616512 C489.879793,472.652507 489.907288,472.696002 489.931783,472.741997 Z" id="Page-1"></path>
        </g>
    </g>
</svg>