<?xml version="1.0" encoding="UTF-8"?>
<svg width="192px" height="20px" viewBox="0 0 192 20" version="1.1" xmlns="http://www.w3.org/2000/svg" xmlns:xlink="http://www.w3.org/1999/xlink">
    <!-- Generator: Sketch 41.2 (35397) - http://www.bohemiancoding.com/sketch -->
    <title>Logo</title>
    <desc>Created with Sketch.</desc>
    <defs></defs>
    <g id="Page-1" stroke="none" stroke-width="1" fill="none" fill-rule="evenodd">
        <g id="Desktop-HD-Copy-7" transform="translate(-221.000000, -30.000000)" fill="#FFFFFF">
            <g id="Logo" transform="translate(221.000000, 30.000000)">
                <path d="M37.6215213,4.80752554 C37.6215069,4.18116954 37.7853909,3.80135768 38.1131725,3.66808996 C38.4409398,3.53482223 39.1292515,3.49484203 40.1781076,3.54814937 L40.1781076,1.16932771 C39.3128015,1.00940693 38.5687691,0.962763771 37.9460111,1.02939702 C37.3232549,1.09603028 36.8086602,1.20930791 36.4022263,1.36922869 C35.9957946,1.52914947 35.6713048,1.79235284 35.428757,2.15883756 C35.1862091,2.52532228 35.0157699,2.92512424 34.9174397,3.35824344 C34.8191095,3.79135043 34.7699443,4.30776211 34.7699443,4.90747603 L34.7699443,5.60712946 L33,5.60712946 L33,8.10589171 L34.7699443,8.10589171 L34.7699443,16.0019804 L37.6215213,16.0019804 L37.6215213,8.10589171 L40.1781076,8.10589171 L40.1781076,5.60712946 L37.6215213,5.60712946 L37.6215213,4.80752554 Z M41.3580705,16.0019804 L44.2096475,16.0019804 L44.2096475,9.34527778 C44.2096475,8.83886176 44.5013604,8.47237704 45.0847866,8.24582239 C45.6682125,8.01926775 46.5236856,7.97262459 47.6512059,8.10589171 L47.6512059,5.50717897 C46.9432282,5.34725819 46.2647495,5.38057542 45.6157699,5.60712946 C44.9667904,5.83367435 44.425974,6.22014917 43.993321,6.76655514 L43.5213358,5.60712946 L41.3580705,5.60712946 L41.3580705,16.0019804 Z M54.612987,12.6036638 C54.4294406,13.3366338 53.8919018,13.7031191 53.0003711,13.7031191 C52.4759454,13.7031204 52.0760692,13.5765162 51.8007421,13.3233073 C51.5254174,13.0700993 51.3877551,12.7169411 51.3877551,12.2638321 L51.3877551,11.7041093 L57.4842301,11.7041093 L57.4842301,9.54517876 C57.4842301,8.19917863 57.0843535,7.17302067 56.2846011,6.46670367 C55.4848487,5.76040681 54.3966605,5.407248 53.0200371,5.40722848 C51.6303032,5.40722848 50.5355601,5.76038728 49.7358071,6.46670367 C48.9360546,7.17301823 48.5361781,8.1991768 48.5361781,9.54517876 L48.5361781,12.0639311 C48.5361781,13.4099309 48.9393321,14.4360892 49.7456401,15.1424062 C50.5519478,15.8487229 51.6368579,16.2018814 53.0003711,16.2018814 C54.2983302,16.2018814 55.3340752,15.8986981 56.1076067,15.2923319 C56.8811381,14.6859654 57.3334572,13.7897431 57.464564,12.6036638 L54.612987,12.6036638 Z M51.3877551,9.34527778 C51.3877551,8.86551543 51.5319727,8.50569367 51.8204082,8.26581249 C52.1088436,8.02593131 52.5087199,7.90599073 53.0200371,7.90599073 C54.0951106,7.90599073 54.6326495,8.38575308 54.6326531,9.34527778 L54.6326531,9.60514905 L51.3877551,9.60514905 L51.3877551,9.34527778 Z M65.3309833,12.6036638 C65.1474369,13.3366338 64.6098981,13.7031191 63.7183673,13.7031191 C63.1939417,13.7031204 62.7940655,13.5765162 62.5187384,13.3233073 C62.2434137,13.0700993 62.1057514,12.7169411 62.1057514,12.2638321 L62.1057514,11.7041093 L68.2022263,11.7041093 L68.2022263,9.54517876 C68.2022263,8.19917863 67.8023498,7.17302067 67.0025974,6.46670367 C66.202845,5.76040681 65.1146568,5.407248 63.7380334,5.40722848 C62.3482995,5.40722848 61.2535564,5.76038728 60.4538033,6.46670367 C59.6540509,7.17301823 59.2541744,8.1991768 59.2541744,9.54517876 L59.2541744,12.0639311 C59.2541744,13.4099309 59.6573284,14.4360892 60.4636364,15.1424062 C61.269944,15.8487229 62.3548542,16.2018814 63.7183673,16.2018814 C65.0163265,16.2018814 66.0520715,15.8986981 66.825603,15.2923319 C67.5991344,14.6859654 68.0514535,13.7897431 68.1825603,12.6036638 L65.3309833,12.6036638 Z M62.1057514,9.34527778 C62.1057514,8.86551543 62.249969,8.50569367 62.5384045,8.26581249 C62.8268399,8.02593131 63.2267161,7.90599073 63.7380334,7.90599073 C64.8131069,7.90599073 65.3506457,8.38575308 65.3506494,9.34527778 L65.3506494,9.60514905 L62.1057514,9.60514905 L62.1057514,9.34527778 Z M75.0656772,16.0019804 L76.5012987,9.94498072 L77.9565863,16.0019804 L81.1621521,16.0019804 L83.9350649,5.60712946 L81.1818182,5.60712946 L79.5692022,12.4637331 L78.0352505,5.60712946 L75.1836735,5.60712946 L73.6300557,12.4637331 L72.0371058,5.60712946 L69.0871985,5.60712946 L71.8601113,16.0019804 L75.0656772,16.0019804 Z M93.7680891,9.54517876 C93.7680891,8.19917863 93.3682125,7.17302067 92.5684601,6.46670367 C91.7687077,5.76040681 90.6805195,5.407248 89.3038961,5.40722848 C87.9141622,5.40722848 86.8194191,5.76038728 86.019666,6.46670367 C85.2199136,7.17301823 84.8200371,8.1991768 84.8200371,9.54517876 L84.8200371,12.0639311 C84.8200371,13.4099309 85.2199133,14.4360892 86.019666,15.1424062 C86.8194188,15.8487229 87.9076067,16.2018814 89.2842301,16.2018814 C90.6739627,16.2018814 91.7687059,15.8487229 92.5684601,15.1424062 C93.3682029,14.4360895 93.7680795,13.4099312 93.7680891,12.0639311 L93.7680891,9.54517876 Z M90.9165121,12.2638321 C90.9165151,13.2233568 90.3724213,13.7031191 89.2842301,13.7031191 C88.7860236,13.7031191 88.3927026,13.5831786 88.1042672,13.3432974 C87.8158371,13.1034162 87.6716195,12.7435944 87.6716141,12.2638321 L87.6716141,9.34527778 C87.6716141,8.86551543 87.8158317,8.50569367 88.1042672,8.26581249 C88.3927026,8.02593131 88.7925788,7.90599073 89.3038961,7.90599073 C90.3789696,7.90599073 90.9165085,8.38575308 90.9165121,9.34527778 L90.9165121,12.2638321 Z M95.8330241,16.0019804 L98.6846011,16.0019804 L98.6846011,9.34527778 C98.6846011,8.83886176 98.9763141,8.47237704 99.5597403,8.24582239 C100.143166,8.01926775 100.998639,7.97262459 102.12616,8.10589171 L102.12616,5.50717897 C101.418182,5.34725819 100.739703,5.38057542 100.090724,5.60712946 C99.441744,5.83367435 98.9009276,6.22014917 98.4682746,6.76655514 L97.9962894,5.60712946 L95.8330241,5.60712946 L95.8330241,16.0019804 Z M109.54026,16.0019804 L113.02115,16.0019804 L108.969944,10.1248916 L112.706494,5.60712946 L109.245269,5.60712946 L106.157699,9.54517876 L106.157699,1.20930791 L103.306122,1.20930791 L103.306122,16.0019804 L106.157699,16.0019804 L106.157699,13.5431984 L107.141002,12.3437925 L109.54026,16.0019804 Z M119.333952,12.9634855 C119.333952,13.5232083 118.822635,13.8030696 117.8,13.8030696 C116.790476,13.8030696 116.285714,13.5032182 116.285714,12.9035152 L116.285714,12.7036142 L113.434137,12.7036142 L113.434137,13.0034657 C113.434137,14.0429508 113.817625,14.8358915 114.584601,15.3822874 C115.351577,15.9286833 116.423377,16.2018814 117.8,16.2018814 C119.189732,16.2018814 120.268087,15.9253518 121.035065,15.3722923 C121.802041,14.8192328 122.185529,13.9829805 122.185529,12.863535 C122.185529,12.0639311 121.920037,11.4042579 121.389054,10.8845153 C120.858071,10.3647728 120.120594,10.004951 119.176623,9.80505003 L117.288683,9.40524807 C116.685593,9.28530749 116.384047,9.03209978 116.384045,8.64562435 C116.384045,8.08590161 116.862585,7.80604024 117.819666,7.80604024 C118.763636,7.80604024 119.235622,8.10589171 119.235622,8.70559465 L119.235622,8.90549563 L122.087199,8.90549563 L122.087199,8.60564416 C122.087199,7.55283863 121.716821,6.7565668 120.976067,6.21682745 C120.235313,5.6770948 119.183179,5.40722848 117.819666,5.40722848 C116.443043,5.40722848 115.384354,5.68042689 114.643599,6.2268225 C113.902845,6.77321688 113.532468,7.59947386 113.532468,8.70559465 C113.532468,9.51852509 113.797959,10.1881934 114.328942,10.7145995 C114.859926,11.2410053 115.597403,11.6041589 116.541373,11.8040598 L118.429314,12.2038618 C119.032396,12.3238024 119.333943,12.5770104 119.333952,12.9634855 Z M133.001855,9.54517876 C133.001855,8.19917863 132.680643,7.17302067 132.038219,6.46670367 C131.395795,5.76040681 130.517378,5.407248 129.402968,5.40722848 C128.183673,5.40722848 127.259369,5.80703044 126.630056,6.60663436 L126.217069,5.60712946 L124.053803,5.60712946 L124.053803,20 L126.90538,20 L126.90538,15.302327 C127.521581,15.9020299 128.347554,16.2018814 129.383302,16.2018814 C130.510823,16.2018814 131.395795,15.8487229 132.038219,15.1424062 C132.680629,14.4360895 133.001841,13.4099312 133.001855,12.0639311 L133.001855,9.54517876 Z M130.150278,12.2638321 C130.150282,13.2233568 129.606188,13.7031191 128.517996,13.7031191 C128.019793,13.7031191 127.626472,13.5831786 127.338033,13.3432974 C127.049604,13.1034162 126.905386,12.7435944 126.90538,12.2638321 L126.90538,9.34527778 C126.90538,8.86551543 127.049598,8.50569367 127.338033,8.26581249 C127.626469,8.02593131 128.026345,7.90599073 128.537662,7.90599073 C129.612736,7.90599073 130.150275,8.38575308 130.150278,9.34527778 L130.150278,12.2638321 Z M134.476809,12.9434954 C134.476809,13.996307 134.788188,14.8025745 135.410946,15.3622973 C136.033704,15.92202 136.882622,16.2018814 137.957699,16.2018814 C139.268769,16.2018814 140.232405,15.8087427 140.848609,15.0224656 L141.261596,16.0019804 L143.424861,16.0019804 L143.424861,9.30529758 C143.424875,8.03925784 143.047942,7.07307018 142.294063,6.40673338 C141.540198,5.74041671 140.50773,5.407248 139.19666,5.40722848 C137.820038,5.40722848 136.771182,5.70707995 136.050093,6.30678289 C135.329005,6.90648583 134.96846,7.77272361 134.96846,8.90549563 L137.820037,8.90549563 C137.820037,8.50570465 137.924923,8.21917971 138.134694,8.04592141 C138.344465,7.87272046 138.698454,7.78609711 139.19666,7.78605014 C139.616203,7.78605014 139.950526,7.90599073 140.199629,8.1458719 C140.448719,8.38575308 140.573271,8.71225821 140.573284,9.1253867 L140.573284,10.5646738 C139.957081,9.97829735 139.091775,9.68510945 137.977365,9.68510945 C136.889178,9.68510945 136.033704,9.96497082 135.410946,10.5246936 C134.788188,11.0844157 134.476809,11.8906829 134.476809,12.9434954 Z M137.328386,12.8435449 C137.328386,12.2704953 137.865924,11.9839707 138.941002,11.9839707 C140.02919,11.9839689 140.573284,12.2704935 140.573284,12.8435449 C140.573287,13.4165942 140.029193,13.7031191 138.941002,13.7031191 C137.865925,13.7031191 137.328387,13.4165945 137.328386,12.8435449 Z M151.487941,12.043941 L151.487941,12.2638321 C151.487944,13.2233568 150.94385,13.7031191 149.855659,13.7031191 C149.357452,13.7031191 148.964131,13.5831786 148.675696,13.3432974 C148.387266,13.1034162 148.243048,12.7435944 148.243043,12.2638321 L148.243043,9.34527778 C148.243043,8.86551543 148.38726,8.50569367 148.675696,8.26581249 C148.964131,8.02593131 149.364007,7.90599073 149.875325,7.90599073 C150.950398,7.90599073 151.487937,8.38575308 151.487941,9.34527778 L151.487941,9.56516886 L154.339518,9.56516886 L154.339518,9.54517876 C154.339518,8.19917863 153.939641,7.17302067 153.139889,6.46670367 C152.340136,5.76040681 151.251948,5.407248 149.875325,5.40722848 C148.485591,5.40722848 147.390848,5.76038728 146.591095,6.46670367 C145.791342,7.17301823 145.391466,8.1991768 145.391466,9.54517876 L145.391466,12.0639311 C145.391466,13.4099309 145.791342,14.4360892 146.591095,15.1424062 C147.390847,15.8487229 148.479035,16.2018814 149.855659,16.2018814 C151.245391,16.2018814 152.340134,15.8487229 153.139889,15.1424062 C153.939632,14.4360895 154.339508,13.4099312 154.339518,12.0639311 L154.339518,12.043941 L151.487941,12.043941 Z M161.98961,12.6036638 C161.806064,13.3366338 161.268525,13.7031191 160.376994,13.7031191 C159.852569,13.7031204 159.452693,13.5765162 159.177365,13.3233073 C158.902041,13.0700993 158.764378,12.7169411 158.764378,12.2638321 L158.764378,11.7041093 L164.860853,11.7041093 L164.860853,9.54517876 C164.860853,8.19917863 164.460977,7.17302067 163.661224,6.46670367 C162.861472,5.76040681 161.773284,5.407248 160.39666,5.40722848 C159.006927,5.40722848 157.912183,5.76038728 157.11243,6.46670367 C156.312678,7.17301823 155.912801,8.1991768 155.912801,9.54517876 L155.912801,12.0639311 C155.912801,13.4099309 156.315955,14.4360892 157.122263,15.1424062 C157.928571,15.8487229 159.013481,16.2018814 160.376994,16.2018814 C161.674954,16.2018814 162.710699,15.8986981 163.48423,15.2923319 C164.257761,14.6859654 164.710081,13.7897431 164.841187,12.6036638 L161.98961,12.6036638 Z M158.764378,9.34527778 C158.764378,8.86551543 158.908596,8.50569367 159.197032,8.26581249 C159.485467,8.02593131 159.885343,7.90599073 160.39666,7.90599073 C161.471734,7.90599073 162.009273,8.38575308 162.009276,9.34527778 L162.009276,9.60514905 L158.764378,9.60514905 L158.764378,9.34527778 Z M178.627087,12.043941 L178.627087,12.2638321 C178.62709,13.2233568 178.082996,13.7031191 176.994805,13.7031191 C176.496599,13.7031191 176.103278,13.5831786 175.814842,13.3432974 C175.526412,13.1034162 175.382195,12.7435944 175.382189,12.2638321 L175.382189,9.34527778 C175.382189,8.86551543 175.526407,8.50569367 175.814842,8.26581249 C176.103278,8.02593131 176.503154,7.90599073 177.014471,7.90599073 C178.089545,7.90599073 178.627084,8.38575308 178.627087,9.34527778 L178.627087,9.56516886 L181.478664,9.56516886 L181.478664,9.54517876 C181.478664,8.19917863 181.078788,7.17302067 180.279035,6.46670367 C179.479283,5.76040681 178.391095,5.407248 177.014471,5.40722848 C175.624737,5.40722848 174.529994,5.76038728 173.730241,6.46670367 C172.930489,7.17301823 172.530612,8.1991768 172.530612,9.54517876 L172.530612,12.0639311 C172.530612,13.4099309 172.930488,14.4360892 173.730241,15.1424062 C174.529994,15.8487229 175.618182,16.2018814 176.994805,16.2018814 C178.384538,16.2018814 179.479281,15.8487229 180.279035,15.1424062 C181.078778,14.4360895 181.478655,13.4099312 181.478664,12.0639311 L181.478664,12.043941 L178.627087,12.043941 Z M192,9.54517876 C192,8.19917863 191.600123,7.17302067 190.800371,6.46670367 C190.000619,5.76040681 188.91243,5.407248 187.535807,5.40722848 C186.146073,5.40722848 185.05133,5.76038728 184.251577,6.46670367 C183.451825,7.17301823 183.051948,8.1991768 183.051948,9.54517876 L183.051948,12.0639311 C183.051948,13.4099309 183.451824,14.4360892 184.251577,15.1424062 C185.05133,15.8487229 186.139518,16.2018814 187.516141,16.2018814 C188.905874,16.2018814 190.000617,15.8487229 190.800371,15.1424062 C191.600114,14.4360895 191.99999,13.4099312 192,12.0639311 L192,9.54517876 Z M189.148423,12.2638321 C189.148426,13.2233568 188.604332,13.7031191 187.516141,13.7031191 C187.017935,13.7031191 186.624614,13.5831786 186.336178,13.3432974 C186.047748,13.1034162 185.90353,12.7435944 185.903525,12.2638321 L185.903525,9.34527778 C185.903525,8.86551543 186.047743,8.50569367 186.336178,8.26581249 C186.624614,8.02593131 187.02449,7.90599073 187.535807,7.90599073 C188.610881,7.90599073 189.148419,8.38575308 189.148423,9.34527778 L189.148423,12.2638321 Z" id="freeworkspace-co"></path>
                <g id="Page-1">
                    <path d="M20.5673759,5.07906977 L10.6382979,5.07906977 C9.43262411,5.07906977 8.5106383,6.02232558 8.5106383,7.25581395 L8.5106383,13.0604651 C8.5106383,14.2213953 9.43262411,15.2372093 10.6382979,15.2372093 L17.7304965,15.2372093 L20.5673759,18.1395349 L20.5673759,15.2372093 C21.7730496,15.2372093 22.6950355,14.2213953 22.6950355,13.0604651 L22.6950355,7.25581395 C22.6950355,6.02232558 21.7730496,5.07906977 20.5673759,5.07906977 Z" id="Fill-1"></path>
                    <path d="M12.0567376,0 L2.12765957,0 C0.921985816,0 0,0.943255814 0,2.17674419 L0,7.98139535 C0,9.14232558 0.921985816,10.1581395 2.12765957,10.1581395 L2.12765957,13.0604651 L4.96453901,10.1581395 L7.09219858,10.1581395 L7.09219858,7.25581395 C7.09219858,5.22418605 8.65248227,3.62790698 10.6382979,3.62790698 L14.1843972,3.62790698 L14.1843972,2.17674419 C14.1843972,0.943255814 13.2624113,0 12.0567376,0 Z" id="Fill-3"></path>
                </g>
            </g>
        </g>
    </g>
</svg>